<?xml version="1.0" encoding="UTF-8"?>
<svg width="32" height="32" aria-hidden="true" focusable="false" version="1.1" viewBox="-4 0 32 32" xmlns="http://www.w3.org/2000/svg">
 <defs>
  <linearGradient id="a" x1="19.469" x2="10.629" y1="19.362" y2="27.433" gradientTransform="scale(1.158 .86356)" gradientUnits="userSpaceOnUse">
   <stop stop-color="#fff" offset="0"/>
   <stop stop-color="#fff" stop-opacity=".2" offset="1"/>
  </linearGradient>
 </defs>
 <g transform="translate(.29425 -.55045)">
  <path d="m22.381 13.118h-7.0388l-1.1812 6.9328h-4.875l-5.7562 6.8762c0.18245 0.15869 0.41506 0.24693 0.65625 0.24895h15.278c0.37154 0.0048 0.69058-0.26475 0.75-0.63368z" fill="url(#a)"/>
  <path d="m0.75968 6c-0.22156-0.0028743-0.43305 0.092945-0.57773 0.26175-0.14468 0.16881-0.20774 0.39333-0.17227 0.61333l3.1838 19.441c0.039131 0.23652 0.15997 0.45157 0.34125 0.60728 0.18245 0.15869 0.41506 0.24693 0.65625 0.24895l5.91-7.1214h-0.82875l-1.3013-6.9328h14.415l1.0125-6.235c0.037596-0.21921-0.022907-0.44393-0.16534-0.6141-0.14243-0.17017-0.35226-0.26844-0.57341-0.26853z" fill="#fff"/>
 </g>
</svg>
