<?xml version="1.0" encoding="UTF-8"?>
<svg enable-background="new 0 0 1000 1000" version="1.1" viewBox="0 0 1e3 1e3" xml:space="preserve" xmlns="http://www.w3.org/2000/svg"><path d="m922.4 81.5-3.9-3.9c-90.1-90.1-237.5-90.1-327.6 0l-208.7 208.7c-90.1 90.1-90.1 237.5 0 327.7l3.8 3.8c7.5 7.5 15.5 14.3 23.7 20.6l76.4-76.5c-8.9-5.2-17.4-11.6-25-19.2l-3.8-3.8c-48.9-48.9-48.9-128.5 0-177.5l208.8-208.7c48.8-48.9 128.4-48.9 177.3 0l3.9 3.8c48.9 48.9 48.9 128.5 0 177.4l-94.3 94.5c16.4 40.5 24.1 83.7 23.4 126.6l146-146c90.1-90 90.1-237.4 0-327.5zm-308.5 300.8c-7.5-7.5-15.5-14.3-23.7-20.5l-76.3 76.4c8.9 5.3 17.4 11.6 25 19.2l3.9 3.9c48.9 48.9 48.9 128.5 0 177.4l-208.8 208.7c-48.9 48.9-128.5 48.9-177.4 0l-3.9-3.9c-48.9-48.9-48.9-128.5 0-177.3l94.4-94.4c-16.4-40.5-24.2-83.7-23.4-126.7l-146.1 145.8c-90.1 90.2-90.1 237.6 0 327.7l3.9 3.9c90.1 90 237.5 90 327.6 0l208.7-208.8c90-90.1 90-237.6 0-327.6l-3.9-3.8z" fill="#fff"/></svg>
