<svg xmlns="http://www.w3.org/2000/svg" width="800" height="800"><path d="M5484.27 3458.67c-63.19 333.74-242.85 541.64-426.97 670.19-190.41 132.95-418.48 201.26-650.71 201.26H1110.73c-114.66 0-158.574-111.94-159.003-168.01-.059-7.31.207-36.57.207-36.57s-5.411-1458.13 4.824-2236.93c31.101-459.78 491.772-459.63 491.772-459.63s1504.04 4.41 2225.35 8.89c33.82.22 67.62 3.86 100.43 12.07 410.69 102.75 453.18 484.28 448.78 696.96 825.5-45.86 1407.92 536.64 1261.18 1311.77m-927.31-756.75c-176.04-22-319.08-5.48-319.08-5.48v1077.95h216.62c143.16 0 281.28-59.61 374.69-168.1 65.76-76.38 118.37-183.88 118.37-332.37 0-362.99-187.04-506-390.6-572" style="fill:#fff;fill-opacity:1;fill-rule:nonzero;stroke:none" transform="matrix(.13333 0 0 -.13333 0 800)"/><path d="M2566.14 2033.67c35.85-18.05 58.75 4.38 58.75 4.38s524.57 478.78 760.89 754.51c210.19 246.66 223.9 662.34-137.07 817.66-360.97 155.31-657.96-182.72-657.96-182.72-257.54 283.26-647.33 268.92-827.62 77.22-180.28-191.7-117.32-520.73 17.17-703.84 126.25-171.9 681.18-666.5 765.29-750.15 0 0 6.13-6.4 20.55-17.06" style="fill:#000;fill-opacity:1;fill-rule:nonzero;stroke:none" transform="matrix(.13333 0 0 -.13333 0 800)"/></svg>