<svg xmlns="http://www.w3.org/2000/svg" xml:space="preserve" viewBox="0 0 1000 1000"><path fill="#fff" d="m922.4 81.5-3.9-3.9c-90.1-90.1-237.5-90.1-327.6 0L382.2 286.3c-90.1 90.1-90.1 237.5 0 327.7l3.8 3.8c7.5 7.5 15.5 14.3 23.7 20.6l76.4-76.5c-8.9-5.2-17.4-11.6-25-19.2l-3.8-3.8c-48.9-48.9-48.9-128.5 0-177.5l208.8-208.7c48.8-48.9 128.4-48.9 177.3 0l3.9 3.8c48.9 48.9 48.9 128.5 0 177.4L753 428.4c16.4 40.5 24.1 83.7 23.4 126.6l146-146c90.1-90 90.1-237.4 0-327.5M613.9 382.3c-7.5-7.5-15.5-14.3-23.7-20.5l-76.3 76.4c8.9 5.3 17.4 11.6 25 19.2l3.9 3.9c48.9 48.9 48.9 128.5 0 177.4L334 847.4c-48.9 48.9-128.5 48.9-177.4 0l-3.9-3.9c-48.9-48.9-48.9-128.5 0-177.3l94.4-94.4c-16.4-40.5-24.2-83.7-23.4-126.7L77.6 590.9c-90.1 90.2-90.1 237.6 0 327.7l3.9 3.9c90.1 90 237.5 90 327.6 0l208.7-208.8c90-90.1 90-237.6 0-327.6z"/></svg>