<svg xmlns="http://www.w3.org/2000/svg" width="16" height="16">
  <g fill="#b53220" paint-order="stroke markers fill">
    <path d="M4 5h8v5H4z"/>
    <path d="M4 4h1v1H4z"/>
    <path d="M11 4h1v1h-1z"/>
    <path d="M1 7h3v6H1z"/>
    <path d="M12 7h3v6h-3z"/>
    <path d="M2 13h1v1H2z"/>
    <path d="M13 13h1v1h-1z"/>
    <path d="M5 10h6v6H5z"/>
    <path d="M11 13h1v3h-1z"/>
    <path d="M12 15h1v1h-1z"/>
    <path d="M4 13h1v3H4z"/>
    <path d="M3 15h1v1H3z"/>
    <path d="M3 5h1v2H3z"/>
    <path d="M2 6h1v1H2z"/>
    <path d="M12 5h1v2h-1z"/>
    <path d="M13 6h1v1h-1z"/>
  </g>
  <g fill="#eb9f23" paint-order="stroke markers fill">
    <rect width="8" height="3" x="4" y="1" image-rendering="pixelated" ry="0"/>
    <path d="M5 15h2v1H5z"/>
    <path d="M9 15h2v1H9z"/>
    <path d="M0 8h1v3H0z"/>
    <path d="M15 8h1v3h-1z"/>
    <path d="M5 0h6v1H5z"/>
    <path d="M6 4h4v1H6z"/>
  </g>
  <g fill="#fff" paint-order="stroke markers fill">
    <path d="M4 1h1v1H4z"/>
    <path d="M6 1h1v1H6z"/>
    <path d="M6 5h4v1H6z"/>
    <path d="M11 1h1v1h-1z"/>
    <path d="M9 1h1v1H9z"/>
    <path d="M5 4h1v3H5z"/>
    <path d="M4 5h1v3H4z"/>
    <path d="M3 7h1v2H3z"/>
    <path d="M10 4h1v3h-1z"/>
    <path d="M7 10h2v1H7z"/>
    <path d="M6 7h4v3H6z"/>
    <path d="M12 7h1v2h-1z"/>
    <path d="M11 5h1v3h-1z"/>
  </g>
  <g paint-order="stroke markers fill">
    <path d="M6 2h1v2H6z"/>
    <path d="M9 2h1v2H9z"/>
    <path d="M6 6h4v1H6z"/>
  </g>
</svg>
